<?xml version="1.0" standalone="no"?>
<!DOCTYPE svg PUBLIC "-//W3C//DTD SVG 20010904//EN"
 "http://www.w3.org/TR/2001/REC-SVG-20010904/DTD/svg10.dtd">
<svg version="1.0" xmlns="http://www.w3.org/2000/svg"
 width="256.000000pt" height="256.000000pt" viewBox="0 0 256.000000 256.000000"
 preserveAspectRatio="xMidYMid meet">
<metadata>
Created by potrace 1.11, written by Peter Selinger 2001-2013
</metadata>
<g transform="translate(0.000000,256.000000) scale(0.100000,-0.100000)"
fill="#000000" stroke="none">
<path d="M1247 2455 c-1 -1 -55 -5 -119 -9 -102 -5 -164 -13 -348 -42 -62 -9
-223 -54 -295 -81 -240 -90 -392 -214 -454 -371 -26 -65 -36 -172 -21 -217 16
-49 65 -84 123 -87 l46 -3 -30 -27 c-16 -15 -36 -42 -43 -59 -17 -40 -12 -110
9 -143 16 -25 16 -27 -14 -56 -72 -72 -67 -199 10 -264 19 -16 35 -40 36 -55
6 -52 14 -71 38 -95 14 -14 25 -27 25 -29 0 -2 -22 -7 -48 -10 -57 -7 -98 -29
-132 -71 -22 -26 -25 -41 -26 -105 -1 -184 94 -355 261 -466 56 -37 227 -110
280 -119 17 -2 39 -7 50 -9 26 -6 89 -16 145 -23 57 -6 1033 -7 1080 0 19 3
51 7 70 10 295 43 509 170 607 361 40 77 55 134 59 229 5 119 -43 176 -164
194 l-43 7 21 23 c25 27 51 97 44 117 -4 8 -1 15 5 15 19 0 70 60 82 97 23 70
-12 193 -60 208 -17 5 -17 8 5 52 13 25 24 58 24 72 -1 37 -35 107 -59 123
-28 17 -27 29 3 24 32 -6 98 26 119 57 41 64 28 203 -31 310 -112 207 -436
359 -887 417 -100 13 -360 30 -368 25z"/>
</g>
</svg>
