<svg height="512pt" viewBox="0 0 512 512" width="512pt" xmlns="http://www.w3.org/2000/svg"><path d="m359.78125 71.285156v288.496094h-207.5625v-288.496094h-144.71875v433.214844h497v-433.214844zm0 0" fill="#ffb655"/><path d="m7.5 15.5c18.089844 0 18.089844-8 36.183594-8 18.089844 0 18.089844 8 36.179687 8 18.089844 0 18.089844-8 36.175781-8 18.089844 0 18.089844 8 36.179688 8v55.785156h-144.71875zm0 0" fill="#a4e276"/><path d="m359.78125 15.5c18.089844 0 18.089844-8 36.183594-8 18.089844 0 18.089844 8 36.179687 8 18.089844 0 18.089844-8 36.175781-8 18.089844 0 18.089844 8 36.179688 8v55.785156h-144.71875zm0 0" fill="#a4e276"/><path d="m244.714844 148.953125h22.570312v106.285156h-22.570312zm0 0" fill="#ffb655"/><path d="m240.136719 255.238281h31.71875v21.996094h-31.71875zm0 0" fill="#787680"/><path d="m225.851562 127.238281h60.292969v21.714844h-60.292969zm0 0" fill="#e8e8ea"/><path d="m294.144531 277.234375h-76.292969v44.429687c0 21.066407 17.078126 38.148438 38.144532 38.148438s38.148437-17.082031 38.148437-38.148438zm0 0" fill="#787680"/><path d="m359.78125 71.285156h30v288.496094h-30zm0 0" fill="#ff7956"/><path d="m7.5 71.285156h30v433.214844h-30zm0 0" fill="#ff7956"/><path d="m58.683594 10.179688c-3.6875-1.476563-7.984375-2.679688-15-2.679688-18.09375 0-18.09375 8-36.183594 8v55.785156h30v-55.785156c11.070312 0 15.367188-2.996094 21.183594-5.320312zm0 0" fill="#64c37d"/><path d="m410.964844 10.179688c-3.6875-1.476563-7.984375-2.679688-15-2.679688-18.09375 0-18.09375 8-36.183594 8v55.785156h30v-55.785156c11.070312 0 15.367188-2.996094 21.183594-5.320312zm0 0" fill="#64c37d"/><path d="m225.851562 127.238281h30v21.714844h-30zm0 0" fill="#e5e4e6"/><path d="m247.851562 321.664062v-44.429687h-30v44.429687c0 21.066407 17.078126 38.148438 38.144532 38.148438 5.324218 0 10.398437-1.09375 15-3.066406-13.609375-5.824219-23.144532-19.339844-23.144532-35.082032zm0 0" fill="#57565c"/><path d="m144.71875 91.289062v275.992188h67.402344v-15h-52.402344v-260.992188zm0 0"/><path d="m299.871094 367.28125h67.410156v-275.992188h-15v260.992188h-52.410156zm0 0"/><path d="m497 497h-482v-405.714844h-15v420.714844h512v-420.714844h-15zm0 0"/><path d="m159.71875 8h-7.5c-7.460938 0-10.8125-1.480469-15.054688-3.359375-4.917968-2.175781-10.492187-4.640625-21.125-4.640625-10.628906 0-16.203124 2.464844-21.121093 4.640625-4.242188 1.878906-7.59375 3.359375-15.054688 3.359375-7.460937 0-10.8125-1.480469-15.058593-3.359375-4.917969-2.175781-10.492188-4.640625-21.121094-4.640625-10.632813 0-16.207032 2.464844-21.125 4.640625-4.246094 1.878906-7.597656 3.359375-15.058594 3.359375h-7.5v70.785156h159.71875zm-15 55.785156h-129.71875v-41.257812c6.054688-.820313 10.015625-2.574219 13.625-4.167969 4.242188-1.878906 7.597656-3.359375 15.058594-3.359375 7.460937 0 10.8125 1.480469 15.054687 3.359375 4.917969 2.175781 10.496094 4.640625 21.125 4.640625 10.628907 0 16.203125-2.464844 21.121094-4.640625 4.246094-1.878906 7.597656-3.359375 15.054687-3.359375 7.460938 0 10.8125 1.480469 15.058594 3.359375 3.605469 1.59375 7.570313 3.347656 13.621094 4.167969zm0 0"/><path d="m504.5 8c-7.460938 0-10.8125-1.480469-15.054688-3.359375-4.917968-2.175781-10.496093-4.640625-21.125-4.640625-10.628906 0-16.203124 2.464844-21.121093 4.640625-4.242188 1.878906-7.59375 3.359375-15.054688 3.359375-7.460937 0-10.8125-1.480469-15.058593-3.359375-4.917969-2.175781-10.492188-4.640625-21.121094-4.640625-10.632813 0-16.207032 2.464844-21.125 4.640625-4.246094 1.878906-7.597656 3.359375-15.058594 3.359375h-7.5v70.785156h159.71875v-70.785156zm-7.5 55.785156h-129.71875v-41.257812c6.054688-.820313 10.015625-2.574219 13.625-4.167969 4.242188-1.878906 7.597656-3.359375 15.058594-3.359375 7.460937 0 10.8125 1.480469 15.054687 3.359375 4.917969 2.175781 10.496094 4.640625 21.125 4.640625 10.628907 0 16.203125-2.464844 21.121094-4.640625 4.246094-1.878906 7.597656-3.359375 15.058594-3.359375 7.457031 0 10.8125 1.480469 15.054687 3.359375 3.609375 1.59375 7.570313 3.347656 13.621094 4.167969zm0 0"/><path d="m255.996094 367.3125c25.167968 0 45.648437-20.476562 45.648437-45.648438v-51.929687h-22.285156v-21.996094h-4.574219v-91.285156h18.859375v-36.714844h-75.292969v36.714844h18.863282v91.285156h-4.578125v21.996094h-22.285157v51.929687c0 25.171876 20.476563 45.648438 45.644532 45.648438zm-22.644532-225.859375v-6.714844h45.292969v6.714844zm18.863282 15h7.570312v91.285156h-7.570312zm-4.578125 106.285156h16.722656v6.996094h-16.722656zm-22.285157 21.996094h23.144532v49.929687h15v-49.929687h23.148437v36.929687c0 16.898438-13.75 30.648438-30.648437 30.648438-16.898438 0-30.644532-13.75-30.644532-30.648438zm0 0"/><path d="m131.007812 423.90625h15v15h-15zm0 0"/><path d="m348.007812 456.929688h15v15h-15zm0 0"/><path d="m386.429688 430.050781h15v15h-15zm0 0"/><path d="m423.140625 260.738281h15v15h-15zm0 0"/><path d="m84.722656 403.050781h15v15h-15zm0 0"/><path d="m384.929688 294.355469h15v15h-15zm0 0"/><path d="m50.222656 130.597656h15v15h-15zm0 0"/><path d="m92.222656 98.785156h15v15h-15zm0 0"/><path d="m430.640625 313.023438h15v15h-15zm0 0"/><path d="m57.722656 439.050781h15v15h-15zm0 0"/><g fill="#fff"><path d="m487 318.523438h-15v-172.238282h15zm0-182.238282h-15v-15h15zm0-25h-15v-15h15zm0 0"/><path d="m486.5 53.785156h-25.71875v-15h25.71875zm-35.71875 0h-15v-15h15zm-25 0h-15v-15h15zm0 0"/></g></svg>