<?xml version="1.0" encoding="iso-8859-1"?>
<!-- Generator: Adobe Illustrator 19.0.0, SVG Export Plug-In . SVG Version: 6.00 Build 0)  -->
<svg version="1.1" id="Capa_1" xmlns="http://www.w3.org/2000/svg" xmlns:xlink="http://www.w3.org/1999/xlink" x="0px" y="0px"
	 viewBox="0 0 512.001 512.001" style="enable-background:new 0 0 512.001 512.001;" xml:space="preserve">
<path style="fill:#FFB69E;" d="M356.398,226.133l-21.57-45.63c-6.386-13.51-20.17-22.241-35.115-22.241c-8.829,0-68.202,0-76.741,0
	c-14.944,0-28.727,8.73-35.113,22.241l-21.571,45.63c-4.565,9.658,2.478,20.831,13.194,20.831c0.012,0,0.024,0,0.036,0l43.109-0.108
	v39.279h77.301v-39.172h43.274C353.895,246.964,360.972,235.809,356.398,226.133z M202.551,217.719l11.696-24.741
	c1.538-3.252,4.803-5.372,8.381-5.502v30.193L202.551,217.719z M299.929,217.777v-30.31c3.629,0.083,6.955,2.22,8.511,5.511
	l11.723,24.799H299.929z"/>
<path style="fill:#78BEFF;" d="M334.828,180.503c-6.386-13.51-20.17-22.241-35.115-22.241h-24.616
	c-0.05,19.319-27.981,19.322-28.011,0h-24.114c-14.944,0-28.727,8.73-35.114,22.241l-10.456,22.118l27.676,9.75l9.167-19.393
	c1.538-3.252,4.803-5.372,8.381-5.502v98.66h77.301v-98.669c3.629,0.083,6.955,2.22,8.511,5.511l9.167,19.393l27.676-9.75
	L334.828,180.503z"/>
<circle style="fill:#FFB69E;" cx="261.436" cy="118.374" r="30.247"/>
<path style="fill:#FFFFFF;" d="M261.452,259.337l-26.455-7.274c-1.54-0.423-2.608-1.824-2.608-3.421v-61.857
	c0-2.085,1.988-3.606,4.004-3.052l25.059,6.89V259.337z"/>
<path style="fill:#A0DCFF;" d="M261.452,259.337l26.455-7.274c1.54-0.423,2.608-1.824,2.608-3.421v-61.857
	c0-2.085-1.988-3.606-4.004-3.052l-25.059,6.89L261.452,259.337L261.452,259.337z"/>
<g>
	<path style="fill:#FFB69E;" d="M179.482,246.964c-8.043,0-14.573-6.51-14.593-14.557c-0.02-8.06,6.498-14.61,14.557-14.63
		l56.132-0.14c0.012,0,0.025,0,0.037,0c8.043,0,14.573,6.51,14.593,14.557c0.02,8.06-6.498,14.61-14.557,14.63l-56.132,0.14
		C179.507,246.964,179.494,246.964,179.482,246.964z"/>
	<path style="fill:#FFB69E;" d="M357.798,232.37c0,8.06-6.535,14.594-14.594,14.594h-56.131c-8.06,0-14.594-6.534-14.594-14.594
		c0-8.061,6.535-14.594,14.594-14.594h56.131C351.264,217.777,357.798,224.311,357.798,232.37z"/>
</g>
<g>
	<path style="fill:#414B82;" d="M213.776,399.547c-9.645-0.725-16.876-9.131-16.151-18.776l7.54-100.319
		c0.725-9.645,9.129-16.874,18.776-16.151c9.645,0.725,16.876,9.131,16.151,18.776l-7.54,100.319
		C231.827,393.039,223.421,400.273,213.776,399.547z"/>
	<path style="fill:#414B82;" d="M295.909,385.163l-18.017-100.816c-1.701-9.521,4.638-18.619,14.158-20.321
		c9.52-1.702,18.619,4.638,20.321,14.159l18.017,100.816c1.701,9.521-4.638,18.619-14.158,20.321
		C306.747,401.017,297.617,394.721,295.909,385.163z"/>
</g>
<path style="fill:#69280F;" d="M259.679,418.569c-6.977,0-12.633-5.656-12.633-12.633V275.85c0-6.977,5.656-12.633,12.633-12.633
	c6.977,0,12.633,5.656,12.633,12.633v130.086C272.313,412.913,266.657,418.569,259.679,418.569z"/>
<g>
	<path style="fill:#823214;" d="M332.476,288.483H186.882c-6.977,0-12.633-5.656-12.633-12.633c0-6.977,5.656-12.633,12.633-12.633
		h145.594c6.977,0,12.633,5.656,12.633,12.633C345.11,282.827,339.454,288.483,332.476,288.483z"/>
	<path style="fill:#823214;" d="M289.596,423.874h-59.833c-6.977,0-12.633-5.656-12.633-12.633c0-6.977,5.656-12.633,12.633-12.633
		h59.833c6.977,0,12.633,5.656,12.633,12.633C302.229,418.218,296.574,423.874,289.596,423.874z"/>
</g>
<g>
	<path style="fill:#69280F;" d="M37.6,422.886c-4.652,0-8.422-3.771-8.422-8.422v-84.191c0-4.652,3.771-8.422,8.422-8.422
		s8.422,3.771,8.422,8.422v84.191C46.022,419.115,42.252,422.886,37.6,422.886z"/>
	<path style="fill:#69280F;" d="M127.209,384.991H37.6c-4.652,0-8.422-3.771-8.422-8.422c0-4.652,3.771-8.422,8.422-8.422h89.609
		c4.652,0,8.422,3.771,8.422,8.422C135.632,381.221,131.861,384.991,127.209,384.991z"/>
	<path style="fill:#69280F;" d="M135.071,418.569l-31.593-81.443c-1.646-4.269,0.48-9.064,4.749-10.71
		c4.268-1.647,9.065,0.479,10.71,4.749l31.593,81.443c1.646,4.269-0.48,9.064-4.749,10.711
		C141.541,424.953,136.728,422.865,135.071,418.569z"/>
</g>
<path style="fill:#823214;" d="M124.808,337.946H35.234c-5.352,0-9.954-3.787-10.987-9.037L0.212,206.641
	c-1.193-6.068,2.76-11.954,8.828-13.147c6.067-1.19,11.953,2.759,13.147,8.827l22.258,113.231h80.364
	c6.184,0,11.198,5.013,11.198,11.198C136.005,332.933,130.992,337.946,124.808,337.946z"/>
<path style="fill:#55879B;" d="M166.755,278.595h-42.222l1.131-71.802c0.185-11.79-9.321-21.448-21.112-21.448H71.444
	c-11.684,0-21.147,9.488-21.115,21.173l0.23,83.713c0.037,13.555,10.491,25.517,26.016,25.403h47.375v-0.027h15.936l-33.043,82.946
	c-3.761,9.503,0.894,20.257,10.399,24.017c9.504,3.762,20.258-0.898,24.017-10.399l43.061-108.262
	C188.996,292.092,180.643,278.595,166.755,278.595z"/>
<circle style="fill:#FFB69E;" cx="101.619" cy="135.868" r="34.039"/>
<path style="fill:#414B82;" d="M167.112,278.596h-42.579l-73.879,13.691c1.015,12.282,10.497,22.742,24.489,23.32
	c0,0,54.878,0,64.743,0l-33.043,82.946c-3.761,9.503,0.895,20.257,10.399,24.017c9.498,3.757,20.254-0.889,24.017-10.399
	L184.32,303.91C189.127,291.761,180.138,278.596,167.112,278.596z"/>
<path style="fill:#FFB69E;" d="M113.877,264.619l-37.599-48.765c-5.147-6.675-3.907-16.258,2.768-21.406
	c6.675-5.146,16.258-3.908,21.406,2.768l32.466,42.108l62.864-5.855c8.382-0.785,15.829,5.388,16.611,13.781
	c0.782,8.392-5.388,15.83-13.781,16.611l-71.234,6.634C122.105,270.987,117.034,268.715,113.877,264.619z"/>
<path style="fill:#87AFB9;" d="M119.159,221.478l-18.707-24.263c-5.147-6.675-14.732-7.914-21.406-2.768
	c-6.675,5.147-7.914,14.731-2.768,21.406l17.824,23.119L119.159,221.478z"/>
<g>
	<path style="fill:#69280F;" d="M474.4,422.886c4.652,0,8.422-3.771,8.422-8.422v-84.191c0-4.652-3.771-8.422-8.422-8.422
		c-4.652,0-8.422,3.771-8.422,8.422v84.191C465.978,419.115,469.748,422.886,474.4,422.886z"/>
	<path style="fill:#69280F;" d="M384.791,384.991H474.4c4.652,0,8.422-3.771,8.422-8.422c0-4.652-3.771-8.422-8.422-8.422h-89.609
		c-4.652,0-8.422,3.771-8.422,8.422C376.368,381.221,380.14,384.991,384.791,384.991z"/>
	<path style="fill:#69280F;" d="M376.929,418.569l31.592-81.443c1.646-4.269-0.48-9.064-4.749-10.71
		c-4.268-1.647-9.065,0.479-10.71,4.749l-31.593,81.443c-1.646,4.269,0.48,9.064,4.749,10.711
		C370.459,424.953,375.271,422.865,376.929,418.569z"/>
</g>
<path style="fill:#823214;" d="M387.193,337.946h89.574c5.352,0,9.954-3.787,10.987-9.037l24.034-122.268
	c1.193-6.068-2.76-11.954-8.827-13.147c-6.067-1.19-11.953,2.759-13.147,8.827l-22.258,113.231h-80.364
	c-6.184,0-11.198,5.013-11.198,11.198C375.995,332.933,381.008,337.946,387.193,337.946z"/>
<path style="fill:#FF3C3C;" d="M345.245,278.595h42.222l-1.131-71.802c-0.185-11.79,9.321-21.448,21.112-21.448h33.107
	c11.684,0,21.147,9.488,21.115,21.173l-0.23,83.713c-0.037,13.555-10.491,25.517-26.016,25.403h-47.375v-0.027h-15.936
	l33.043,82.946c3.761,9.503-0.894,20.257-10.398,24.017c-9.504,3.762-20.258-0.898-24.017-10.399L327.68,303.91
	C323.004,292.092,331.356,278.595,345.245,278.595z"/>
<circle style="fill:#BA6746;" cx="415.85" cy="138.064" r="34.039"/>
<path style="fill:#414B82;" d="M344.889,278.596h42.579l73.879,13.692c-1.015,12.282-10.497,22.742-24.489,23.32H388.05l0,0h-15.936
	l0,0l0,0l33.043,82.946c3.761,9.503-0.895,20.257-10.398,24.017c-9.498,3.757-20.254-0.889-24.017-10.399l-43.061-108.262
	C322.873,291.761,331.862,278.596,344.889,278.596z"/>
<path style="fill:#BA6746;" d="M398.123,264.619l37.599-48.765c5.147-6.675,3.907-16.258-2.768-21.406
	c-6.675-5.146-16.258-3.908-21.406,2.768l-32.466,42.108l-62.864-5.855c-8.382-0.785-15.829,5.388-16.611,13.781
	c-0.782,8.392,5.388,15.83,13.781,16.611l71.234,6.634C389.895,270.987,394.966,268.715,398.123,264.619z"/>
<path style="fill:#FF6248;" d="M392.841,221.478l18.707-24.263c5.147-6.675,14.732-7.914,21.406-2.768
	c6.675,5.147,7.914,14.731,2.768,21.406l-17.824,23.119L392.841,221.478z"/>
<g>
</g>
<g>
</g>
<g>
</g>
<g>
</g>
<g>
</g>
<g>
</g>
<g>
</g>
<g>
</g>
<g>
</g>
<g>
</g>
<g>
</g>
<g>
</g>
<g>
</g>
<g>
</g>
<g>
</g>
</svg>
